<svg version="1.1" id="_x32_" xmlns="http://www.w3.org/2000/svg" xmlns:xlink="http://www.w3.org/1999/xlink" viewBox="-51.2 -51.2 614.40 614.40" xml:space="preserve" width="256px" height="256px" fill="#000000" transform="rotate(0)" stroke="#000000" stroke-width="0.00512"><g id="SVGRepo_bgCarrier" stroke-width="0" transform="translate(0,0), scale(1)"><path transform="translate(-51.2, -51.2), scale(19.2)" d="M16,30.321507034202416C18.080676281504918,30.055365084670193,19.853115215449574,28.778474604242987,21.581157468260535,27.589392900482494C23.146835581092514,26.512035448766053,24.211520180419534,24.941122076828762,25.640330684336796,23.68790718078509C27.364521473412836,22.175613160992167,29.914459407133144,21.468306083409114,30.913547249013703,19.40391983959655C31.918360422362092,17.32770350935114,31.927980985302316,14.692164719866415,31.020146579657144,12.571749558809728C30.121134245598334,10.47193997761135,27.783416100940766,9.465716221027922,26.031228759017992,8.000362006891292C24.562227924213232,6.771836658974323,23.316872881845935,5.1734737250134994,21.48938521211201,4.601174153021644C19.719094986260934,4.0467866431439745,17.851896863860016,4.967365045641508,16,4.8589630139370765C14.018469537921508,4.7429727921458875,12.009788244415175,3.1423106999622026,10.192153798325773,3.9398830942220897C8.389299062923069,4.730970196973435,8.281703223872913,7.329095327705192,6.988186873237165,8.813318845825506C5.624636945077751,10.377901211182376,3.2938429144889607,11.025620911896434,2.3890743126395915,12.893395031450718C1.4578988121170462,14.815682671720278,1.0673051064957835,17.262679244960918,1.9539011235253572,19.205930409194153C2.8561492419277377,21.183488026006895,5.721857224018095,21.416482993268414,7.059407679521346,23.129884456428105C8.416311685680519,24.868077808278617,7.967897943111353,27.72879872044295,9.686122382885246,29.11090196727794C11.377121212253366,30.471105511333803,13.847370095260432,30.596852663198764,16,30.321507034202416" fill="#7ed0ec" strokewidth="0"></path></g><g id="SVGRepo_tracerCarrier" stroke-linecap="round" stroke-linejoin="round" stroke="#CCCCCC" stroke-width="5.12"></g><g id="SVGRepo_iconCarrier"> <style type="text/css"> .st0{fill:#d01111;} </style> <g> <rect x="141.312" class="st0" width="32.771" height="71.683"></rect> <rect x="206.853" class="st0" width="32.761" height="71.683"></rect> <rect x="272.385" class="st0" width="32.761" height="71.683"></rect> <rect x="337.917" class="st0" width="32.77" height="71.683"></rect> <rect x="141.312" y="440.326" class="st0" width="32.771" height="71.674"></rect> <rect x="206.853" y="440.326" class="st0" width="32.761" height="71.674"></rect> <rect x="272.385" y="440.326" class="st0" width="32.761" height="71.674"></rect> <rect x="337.917" y="440.326" class="st0" width="32.77" height="71.674"></rect> <rect x="440.321" y="141.307" class="st0" width="71.674" height="32.771"></rect> <rect x="440.321" y="206.849" class="st0" width="71.674" height="32.77"></rect> <rect x="440.321" y="272.39" class="st0" width="71.674" height="32.761"></rect> <rect x="440.321" y="337.922" class="st0" width="71.674" height="32.77"></rect> <rect x="0.005" y="141.307" class="st0" width="71.674" height="32.771"></rect> <rect x="0.005" y="206.849" class="st0" width="71.674" height="32.77"></rect> <rect x="0.005" y="272.39" class="st0" width="71.674" height="32.761"></rect> <rect x="0.005" y="337.922" class="st0" width="71.674" height="32.77"></rect> <path class="st0" d="M255.246,252.209c6.171,0,9.862-3.586,9.862-9.06c0-5.485-3.69-9.176-9.862-9.176h-11.16 c-0.4,0-0.6,0.21-0.6,0.61v17.025c0,0.4,0.2,0.601,0.6,0.601H255.246z"></path> <path class="st0" d="M92.165,419.84h327.67V92.17H92.165V419.84z M367.359,130.568c8.479,0,15.356,6.867,15.356,15.356 c0,8.488-6.876,15.355-15.356,15.355c-8.479,0-15.356-6.867-15.356-15.355C352.004,137.434,358.88,130.568,367.359,130.568z M367.359,353.287c8.479,0,15.356,6.867,15.356,15.356c0,8.488-6.876,15.355-15.356,15.355c-8.479,0-15.356-6.867-15.356-15.355 C352.004,360.154,358.88,353.287,367.359,353.287z M290.821,222.318c0-0.591,0.4-0.991,1.001-0.991h12.648 c0.6,0,1.001,0.4,1.001,0.991v42.242c0,8.069,4.483,12.648,11.35,12.648c6.772,0,11.264-4.578,11.264-12.648v-42.242 c0-0.591,0.4-0.991,0.992-0.991h12.646c0.601,0,0.992,0.4,0.992,0.991v41.851c0,16.825-10.749,25.99-25.895,25.99 c-15.232,0-25.999-9.165-25.999-25.99V222.318z M228.846,222.318c0-0.591,0.4-0.991,1.001-0.991h26.295 c14.745,0,23.605,8.87,23.605,21.822c0,12.741-8.966,21.707-23.605,21.707h-12.056c-0.4,0-0.6,0.2-0.6,0.6v22.614 c0,0.591-0.391,0.991-0.991,0.991h-12.648c-0.601,0-1.001-0.4-1.001-0.991V222.318z M167.673,236.872 c3.586-11.063,12.256-16.633,24.112-16.633c11.454,0,19.819,5.57,23.605,15.03c0.295,0.496,0.095,0.992-0.496,1.202l-10.863,4.874 c-0.592,0.296-1.097,0.104-1.393-0.486c-1.889-4.387-5.084-7.678-10.759-7.678c-5.274,0-8.66,2.795-10.157,7.468 c-0.801,2.499-1.097,4.883-1.097,14.554c0,9.652,0.296,12.046,1.097,14.535c1.497,4.673,4.883,7.468,10.157,7.468 c5.675,0,8.87-3.291,10.759-7.669c0.296-0.6,0.801-0.791,1.393-0.496l10.863,4.874c0.591,0.21,0.791,0.706,0.496,1.202 c-3.786,9.461-12.152,15.04-23.605,15.04c-11.856,0-20.525-5.58-24.112-16.643c-1.487-4.368-1.888-7.859-1.888-18.312 C165.785,244.732,166.186,241.26,167.673,236.872z M144.64,130.568c8.489,0,15.365,6.876,15.365,15.356 c0,8.478-6.876,15.355-15.365,15.355c-8.488,0-15.355-6.876-15.355-15.355C129.285,137.444,136.152,130.568,144.64,130.568z M144.64,353.287c8.489,0,15.365,6.876,15.365,15.356c0,8.478-6.876,15.355-15.365,15.355c-8.488,0-15.355-6.877-15.355-15.355 C129.285,360.163,136.152,353.287,144.64,353.287z"></path> </g> </g></svg>